<svg id="visual" viewBox="0 0 960 540" width="960" height="540" xmlns="http://www.w3.org/2000/svg" xmlns:xlink="http://www.w3.org/1999/xlink" version="1.1"><rect x="0" y="0" width="960" height="540" fill="#ffffff"></rect><path d="M0 346L16 343.2C32 340.3 64 334.7 96 344.7C128 354.7 160 380.3 192 396.7C224 413 256 420 288 417.2C320 414.3 352 401.7 384 386.8C416 372 448 355 480 345.3C512 335.7 544 333.3 576 350.5C608 367.7 640 404.3 672 405.7C704 407 736 373 768 355.8C800 338.7 832 338.3 864 344.3C896 350.3 928 362.7 944 368.8L960 375L960 541L944 541C928 541 896 541 864 541C832 541 800 541 768 541C736 541 704 541 672 541C640 541 608 541 576 541C544 541 512 541 480 541C448 541 416 541 384 541C352 541 320 541 288 541C256 541 224 541 192 541C160 541 128 541 96 541C64 541 32 541 16 541L0 541Z" fill="#29c152" stroke-linecap="round" stroke-linejoin="miter"></path></svg>