<svg id="visual" viewBox="0 0 900 175" width="900" height="175" xmlns="http://www.w3.org/2000/svg" xmlns:xlink="http://www.w3.org/1999/xlink" version="1.1"><rect x="0" y="0" width="900" height="175" fill="#ffffff"></rect><path d="M0 138L21.5 137.2C43 136.3 86 134.7 128.8 128.7C171.7 122.7 214.3 112.3 257.2 106.5C300 100.7 343 99.3 385.8 102C428.7 104.7 471.3 111.3 514.2 108.7C557 106 600 94 642.8 91.8C685.7 89.7 728.3 97.3 771.2 100.8C814 104.3 857 103.7 878.5 103.3L900 103L900 176L878.5 176C857 176 814 176 771.2 176C728.3 176 685.7 176 642.8 176C600 176 557 176 514.2 176C471.3 176 428.7 176 385.8 176C343 176 300 176 257.2 176C214.3 176 171.7 176 128.8 176C86 176 43 176 21.5 176L0 176Z" fill="#31af4b" stroke-linecap="round" stroke-linejoin="miter"></path></svg>